<svg xmlns="http://www.w3.org/2000/svg" width="24" height="24" viewBox="0 0 24 24" fill="none">
    <g clip-path="url(#clip0_280_2110)">
        <path d="M0.239063 12.586L7.25156 19.6547C7.575 19.9782 8.1 19.9828 8.42344 19.6594C8.74688 19.336 8.75156 18.811 8.42812 18.4875L2.81719 12.8297H23.1703C23.6297 12.8297 24 12.4594 24 12C24 11.5407 23.6297 11.1703 23.1703 11.1703H2.81719L8.42812 5.51254C8.75156 5.1891 8.74688 4.6641 8.42344 4.34066C8.1 4.01722 7.575 4.02191 7.25156 4.34535L0.239063 11.4141C-0.0796871 11.7375 -0.0796871 12.2625 0.239063 12.586Z" fill="white"/>
    </g>
    <defs>
        <clipPath id="clip0_280_2110">
            <rect width="24" height="24" fill="white" transform="matrix(-1 0 0 -1 24 24)"/>
        </clipPath>
    </defs>
</svg>