<svg xmlns="http://www.w3.org/2000/svg" width="24" height="24" viewBox="0 0 24 24" fill="none">
    <g clip-path="url(#clip0_280_2467)">
        <path d="M23.7609 12.5859L16.7484 19.6547C16.425 19.9781 15.9 19.9828 15.5766 19.6594C15.2531 19.3359 15.2484 18.8109 15.5719 18.4875L21.1828 12.8297H0.829688C0.370313 12.8297 0 12.4594 0 12C0 11.5406 0.370313 11.1703 0.829688 11.1703H21.1828L15.5719 5.51251C15.2484 5.18907 15.2531 4.66407 15.5766 4.34063C15.9 4.01719 16.425 4.02188 16.7484 4.34532L23.7609 11.4141C24.0797 11.7375 24.0797 12.2625 23.7609 12.5859Z" fill="white"/>
    </g>
    <defs>
        <clipPath id="clip0_280_2467">
            <rect width="24" height="24" fill="white" transform="matrix(1 0 0 -1 0 24)"/>
        </clipPath>
    </defs>
</svg>