<svg width="26" height="26" viewBox="0 0 26 26" fill="none" xmlns="http://www.w3.org/2000/svg">
<g id="icon" clip-path="url(#clip0_280_2251)">
<path id="Vector" fill-rule="evenodd" clip-rule="evenodd" d="M9.29933 5.55998C9.94584 9.00481 12.8228 12.9155 12.8228 12.9155C12.8228 12.9155 16.0149 8.57642 16.4299 5.01328C16.4888 4.72666 16.5198 4.42861 16.5198 4.12265C16.5198 1.87854 14.8497 0.0593262 12.7895 0.0593262C10.7293 0.0593262 9.05924 1.87854 9.05924 4.12265C9.05924 4.6287 9.14417 5.11314 9.29933 5.55998ZM12.8185 12.9214C12.4098 12.6266 8.74839 10.0349 5.50087 9.42534C5.05395 9.27012 4.56946 9.18519 4.06332 9.18519C1.81922 9.18519 0 10.8553 0 12.9155C0 14.9756 1.81922 16.6457 4.06332 16.6457C4.36915 16.6457 4.66708 16.6147 4.95359 16.5559C8.17046 16.1814 12.0199 13.5431 12.7378 13.0337C12.2285 13.7517 9.59039 17.6009 9.21574 20.8176C9.15689 21.1042 9.12586 21.4023 9.12586 21.7082C9.12586 23.9523 10.796 25.7716 12.8561 25.7716C14.9163 25.7716 16.5864 23.9523 16.5864 21.7082C16.5864 21.2022 16.5015 20.7178 16.3463 20.2709C15.766 17.1789 13.3888 13.7117 12.9079 13.0338C13.6261 13.5434 17.4754 16.1814 20.6921 16.5559C20.9786 16.6147 21.2765 16.6457 21.5823 16.6457C23.8264 16.6457 25.6456 14.9756 25.6456 12.9155C25.6456 10.8553 23.8264 9.18519 21.5823 9.18519C21.0762 9.18519 20.5917 9.27012 20.1448 9.42534C16.8973 10.0349 13.2361 12.6264 12.8272 12.9214C12.8243 12.9174 12.8228 12.9155 12.8228 12.9155C12.8228 12.9155 12.8214 12.9174 12.8185 12.9214Z" fill="white"/>
<path id="Vector_2" fill-rule="evenodd" clip-rule="evenodd" d="M9.29933 5.55998C9.94584 9.00481 12.8228 12.9155 12.8228 12.9155C12.8228 12.9155 16.0149 8.57642 16.4299 5.01328C16.4888 4.72666 16.5198 4.42861 16.5198 4.12265C16.5198 1.87854 14.8497 0.0593262 12.7895 0.0593262C10.7293 0.0593262 9.05924 1.87854 9.05924 4.12265C9.05924 4.6287 9.14417 5.11314 9.29933 5.55998ZM12.8185 12.9214C12.4098 12.6266 8.74839 10.0349 5.50087 9.42534C5.05395 9.27012 4.56946 9.18519 4.06332 9.18519C1.81922 9.18519 0 10.8553 0 12.9155C0 14.9756 1.81922 16.6457 4.06332 16.6457C4.36915 16.6457 4.66708 16.6147 4.95359 16.5559C8.17046 16.1814 12.0199 13.5431 12.7378 13.0337C12.2285 13.7517 9.59039 17.6009 9.21574 20.8176C9.15689 21.1042 9.12586 21.4023 9.12586 21.7082C9.12586 23.9523 10.796 25.7716 12.8561 25.7716C14.9163 25.7716 16.5864 23.9523 16.5864 21.7082C16.5864 21.2022 16.5015 20.7178 16.3463 20.2709C15.766 17.1789 13.3888 13.7117 12.9079 13.0338C13.6261 13.5434 17.4754 16.1814 20.6921 16.5559C20.9786 16.6147 21.2765 16.6457 21.5823 16.6457C23.8264 16.6457 25.6456 14.9756 25.6456 12.9155C25.6456 10.8553 23.8264 9.18519 21.5823 9.18519C21.0762 9.18519 20.5917 9.27012 20.1448 9.42534C16.8973 10.0349 13.2361 12.6264 12.8272 12.9214C12.8243 12.9174 12.8228 12.9155 12.8228 12.9155C12.8228 12.9155 12.8214 12.9174 12.8185 12.9214Z" fill="white"/>
</g>
<defs>
<clipPath id="clip0_280_2251">
<rect width="25.7204" height="26" fill="white"/>
</clipPath>
</defs>
</svg>
