<svg width="32" height="32" viewBox="0 0 32 32" fill="none" xmlns="http://www.w3.org/2000/svg">
<circle cx="16" cy="16" r="16" transform="rotate(-90 16 16)" fill="#74CD24"/>
<path d="M17.061 16L21.48 11.581C21.773 11.288 21.773 10.813 21.48 10.52C21.187 10.227 20.712 10.227 20.419 10.52L16 14.939L11.581 10.52C11.288 10.227 10.813 10.227 10.52 10.52C10.227 10.813 10.227 11.288 10.52 11.581L14.939 16L10.52 20.419C10.227 20.712 10.227 21.187 10.52 21.48C10.666 21.626 10.858 21.7 11.05 21.7C11.242 21.7 11.434 21.627 11.58 21.48L15.999 17.061L20.418 21.48C20.564 21.626 20.756 21.7 20.948 21.7C21.14 21.7 21.332 21.627 21.478 21.48C21.771 21.187 21.771 20.712 21.478 20.419L17.059 16H17.061Z" fill="white"/>
</svg>
