<svg width="85" height="85" viewBox="0 0 85 85" fill="none" xmlns="http://www.w3.org/2000/svg">
<g clip-path="url(#clip0_280_2518)">
<path d="M22.1125 24.0556C18.4884 28.0805 16.1393 33.0896 15.3622 38.4496C14.585 43.8095 15.4147 49.2796 17.7464 54.168C20.078 59.0564 23.8069 63.1437 28.4615 65.9128C33.116 68.682 38.4872 70.0088 43.8958 69.7253C49.3044 69.4419 54.5075 67.5609 58.8471 64.3204C63.1867 61.0799 66.4679 56.6252 68.2758 51.5199C70.0837 46.4145 70.3371 40.8877 69.004 35.6383C67.6708 30.389 64.8109 25.6528 60.7861 22.0288C55.3888 17.1691 48.2822 14.6525 41.0295 15.0326C33.7768 15.4127 26.9721 18.6584 22.1125 24.0556ZM18.4843 35.7677L20.2438 35.3538C20.6336 35.2629 21.04 35.2706 21.426 35.3765L22.2309 35.5987C22.6584 35.7171 23.1105 35.7139 23.5363 35.5897C23.9621 35.4654 24.3449 35.2248 24.6416 34.8951L26.4181 32.922C26.842 32.4512 27.4355 32.1681 28.0682 32.135C28.7008 32.1018 29.3207 32.3213 29.7915 32.7452L29.8266 32.7769C30.1565 33.0735 30.3971 33.4562 30.5214 33.8821C30.6457 34.3079 30.6488 34.76 30.5303 35.1875L28.6364 42.053C28.6091 42.1483 28.5883 42.2454 28.5741 42.3436L28.0079 46.2204C27.9481 46.6321 27.9962 47.0523 28.1476 47.4399L28.5469 48.451C28.6809 48.7968 28.8942 49.1063 29.1698 49.3544C29.4454 49.6025 29.7754 49.7824 30.1333 49.8794C30.6166 50.0134 31.0456 50.296 31.3595 50.6871C31.6734 51.0782 31.8563 51.5582 31.8825 52.059L31.8886 52.1601C31.9166 52.692 31.7658 53.218 31.4603 53.6544C31.1548 54.0907 30.7121 54.4124 30.2028 54.5682L25.5559 55.9901C25.0106 56.1567 24.4237 56.123 23.901 55.8952L20.9307 54.5993C20.8991 54.6345 20.8655 54.6494 20.8354 54.681C17.578 48.9367 16.7324 42.1347 18.4843 35.7677ZM50.7847 46.3866C50.9134 46.5023 51.0226 46.6379 51.1081 46.7883L52.8259 49.8174C52.9497 50.0347 53.021 50.2778 53.0341 50.5275L53.1815 53.3401C53.1979 53.6581 53.3084 53.964 53.4991 54.2189L56.7083 58.5272C56.8539 58.7239 56.9527 58.9512 56.9972 59.1918C57.0418 59.4325 57.0308 59.6801 56.9652 59.9159L56.7091 60.8477C56.6182 61.1734 56.4275 61.4624 56.1638 61.6742C55.9002 61.8859 55.5768 62.0097 55.2392 62.0282L52.9785 62.1467C52.8053 62.1553 52.6318 62.1364 52.4644 62.0908L50.2725 61.4856C50.0317 61.4182 49.8097 61.2963 49.6236 61.1292L45.8071 57.6927C45.5842 57.4928 45.3103 57.3586 45.0157 57.3051C44.7212 57.2516 44.4175 57.2809 44.1386 57.3897L42.7509 57.9357C42.4896 58.0392 42.2056 58.0724 41.9275 58.0317L38.1812 57.4842C37.8663 57.4386 37.572 57.3007 37.3355 57.0879L36.503 56.3383C36.2812 56.1375 36.1194 55.8792 36.0356 55.592C35.9517 55.3048 35.9492 55 36.0281 54.7115L36.3927 53.3765C36.4861 53.0405 36.4674 52.6831 36.3393 52.3587L35.8372 51.0691C35.7288 50.791 35.6994 50.4883 35.7522 50.1945C35.8051 49.9007 35.9383 49.6272 36.1369 49.4044L37.6411 47.7338C37.7827 47.5764 37.9539 47.4484 38.1449 47.3572C38.336 47.2659 38.5432 47.2133 38.7546 47.2022L39.2626 47.1756C39.6897 47.1528 40.0903 46.962 40.3771 46.6447L40.6003 46.3968C40.8879 46.0798 41.2895 45.8897 41.717 45.8681C42.1446 45.8466 42.5632 45.9953 42.8814 46.2817C43.104 46.4813 43.3777 46.6153 43.6719 46.6688C43.9661 46.7223 44.2693 46.6932 44.548 46.5848L48.1224 45.1803C48.4013 45.0718 48.7048 45.0428 48.9992 45.0965C49.2935 45.1501 49.5673 45.2844 49.79 45.4843L50.7847 46.3866ZM37.5905 25.6796C37.465 25.4171 37.3923 25.1326 37.3765 24.8421L37.2124 21.6945C37.2001 21.4574 37.2257 21.2198 37.2884 20.9907L37.9847 18.4688C38.049 18.2516 38.1468 18.0458 38.2744 17.8587C41.6479 17.2792 45.1045 17.3995 48.4294 18.2123L47.6932 19.03C47.3006 19.466 46.7511 19.7284 46.1652 19.7596L45.7855 19.7795C45.1995 19.8104 44.6497 20.0725 44.2567 20.5083L43.1256 21.7645C42.8936 22.0207 42.725 22.3278 42.6332 22.6611L41.9815 25.0255C41.8893 25.3586 41.7204 25.6653 41.4882 25.9213L41.2242 26.2145C40.9807 26.4846 40.6743 26.6905 40.3323 26.814C39.9903 26.9376 39.6231 26.9749 39.2632 26.9227C38.9033 26.8706 38.5618 26.7306 38.2689 26.515C37.976 26.2995 37.7407 26.0151 37.5839 25.687L37.5905 25.6796ZM67.1845 39.6987L66.7811 39.5533C66.5242 39.4408 66.2871 39.2877 66.0787 39.1001L63.9429 37.1769C63.6419 36.9062 63.2822 36.709 62.8921 36.601L58.4564 35.3774C58.0662 35.2694 57.7065 35.0722 57.4056 34.8014L57.1225 34.5466C56.7923 34.2493 56.3915 34.0413 55.9583 33.9424C55.5251 33.8435 55.0738 33.857 54.6472 33.9815C54.2207 34.106 53.833 34.3374 53.521 34.6539C53.209 34.9703 52.9831 35.3612 52.8646 35.7895L52.5995 36.7517C52.4916 37.1414 52.2947 37.5008 52.0244 37.8016L51.9486 37.8857C51.5816 38.2919 51.0963 38.5726 50.5613 38.6883C50.0262 38.8039 49.4683 38.7487 48.9663 38.5303L47.2986 37.8025C47.0414 37.6904 46.8039 37.5377 46.5953 37.3502L45.0404 35.9501C44.7213 35.6629 44.4781 35.3013 44.3324 34.8975C44.1867 34.4937 44.143 34.0601 44.2052 33.6353L44.6177 30.811C44.6608 30.5152 44.7546 30.2291 44.8951 29.9653L46.8475 26.2865C47.0805 25.848 47.4335 25.485 47.8653 25.2398L50.4219 23.79C50.6662 23.6513 50.8866 23.4743 51.0748 23.2657L53.7975 20.2419C57.4801 22.104 60.6359 24.8616 62.975 28.2612C65.3141 31.6609 66.7615 35.5938 67.1845 39.6987Z" fill="#3E66D4"/>
</g>
<defs>
<clipPath id="clip0_280_2518">
<rect width="59.7467" height="59.7467" fill="white" transform="translate(0.273438 44.5908) rotate(-48)"/>
</clipPath>
</defs>
</svg>
