<svg xmlns="http://www.w3.org/2000/svg" width="610" height="545" viewBox="0 0 610 545" fill="none">
    <path opacity="0.1" d="M0 93.9641C138.345 93.9641 274.612 126.295 413.119 114.768C459.964 110.869 507.789 109.893 552 93.9641C570.829 87.18 603.828 74.2642 607.916 52.0923C609.531 43.3389 608.884 32.0779 605.753 23.6966C600.695 10.1585 582.435 5.79765 569.489 2.79419C539.25 -4.22152 511.853 13.2347 496.343 37.5001C477.928 66.312 492.534 97.1348 510.166 124.135C525.174 147.116 546.909 165.3 561.883 188.419C577.581 212.655 592.394 246.13 597.5 274C601.342 294.973 608.642 330.857 604.5 352C601.034 369.692 589.412 388.862 565.489 392.34C527.281 397.895 437.089 393.194 408.483 392.242C354.148 390.432 270.751 386.66 214.183 385.143C185.409 384.371 157.014 383.358 128.366 385.931C99.2151 388.55 68.9506 396.217 49.3476 418.567C34.3429 435.674 18.6216 472.589 34.5124 493.5C57.6349 523.928 84.7656 513.986 122.39 527.393C166.23 543.015 211.053 530.523 256.319 533.506C278.032 534.938 319.36 537.224 332.556 558.353C334.442 561.373 346.805 589.166 341.21 580.241" stroke="#0A111D" stroke-width="1.5" stroke-linecap="round" stroke-linejoin="round" stroke-dasharray="16 16"/>
</svg>