<svg width="27" height="26" viewBox="0 0 27 26" fill="none" xmlns="http://www.w3.org/2000/svg">
<path d="M10.6894 13.1892C10.7263 13.1892 10.7263 13.2261 10.7263 13.2261L14.7134 9.23899L14.6765 9.20208L10.0987 4.62432C10.0618 4.62432 10.0618 4.5874 10.0618 4.5874L6.07471 8.57448L6.11162 8.6114L10.6894 13.1892Z" fill="white"/>
<path d="M7.55152 16.3272C7.95761 16.7333 8.65904 16.7333 9.10205 16.3272C9.24972 16.0319 11.2802 14.8136 10.1726 13.7061L5.59489 9.1283C5.15188 8.72221 4.48737 8.72221 4.04436 9.1283L2.97376 10.1989C2.56767 10.605 2.56767 11.3064 2.97376 11.7494L7.55152 16.3272Z" fill="white"/>
<path d="M15.1934 8.6851C15.5995 9.09119 16.3009 9.09119 16.7439 8.6851L17.8145 7.6145C18.2575 7.17149 18.2206 6.50698 17.8145 6.06397L13.2367 1.48621C12.8306 1.08012 12.1292 1.08012 11.6862 1.48621L10.6156 2.59373C10.2095 2.99982 10.2095 3.70125 10.6156 4.14426L15.1934 8.6851Z" fill="white"/>
<path d="M24.0537 19.6494L14.3814 10.6416L12.1294 12.8936L21.1372 22.6028C21.9125 23.4519 23.2784 23.5258 24.1275 22.6398C24.9766 21.7907 24.9397 20.4616 24.0537 19.6494Z" fill="white"/>
<path d="M14.6396 21.7907C14.7873 21.5692 14.8612 21.3108 14.8612 21.0524C14.8612 20.3509 14.3074 19.7603 13.6429 19.7603H4.48736C3.82285 19.7603 3.26909 20.314 3.26909 21.0524C3.26909 21.3477 3.34292 21.6061 3.49059 21.7907C2.41999 22.1968 1.68164 23.2305 1.68164 24.4488C1.68164 24.6334 1.82931 24.8179 2.05081 24.8179H16.1163C16.3009 24.8179 16.4855 24.6334 16.4855 24.4488C16.4486 23.2305 15.7103 22.1968 14.6396 21.7907Z" fill="white"/>
</svg>
