<svg width="44" height="44" viewBox="0 0 44 44" fill="none" xmlns="http://www.w3.org/2000/svg">
<g id="graduation" clip-path="url(#clip0_280_2452)">
<path id="Vector" d="M35.75 25.2037V31.185C35.75 33.3575 34.4712 35.2962 32.4912 36.2037C30.085 37.3037 26.4412 38.5 22 38.5C17.5588 38.5 13.915 37.3037 11.495 36.2037C9.52875 35.2962 8.25 33.3575 8.25 31.185V25.2037L18.0262 29.6725C19.2775 30.25 20.625 30.5387 22 30.5387C23.375 30.5387 24.7225 30.25 25.9737 29.6725L35.75 25.2037Z" fill="#74CD24"/>
<path id="Vector_2" d="M41.25 22.6875V31.625C41.25 32.3813 40.6312 33 39.875 33C39.1187 33 38.5 32.3813 38.5 31.625V23.9525L41.25 22.6875Z" fill="#74CD24"/>
<path id="Vector_3" d="M19.1647 27.1755C20.0654 27.5866 21.032 27.7929 22 27.7929C22.968 27.7929 23.9333 27.588 24.8353 27.1755L42.3954 19.1483C43.3854 18.6959 44 17.7375 44 16.6471C44 15.5568 43.3854 14.597 42.3954 14.1446L24.8353 6.11876C23.0326 5.29513 20.9688 5.29513 19.1661 6.11876L1.60463 14.1433C0.614625 14.597 0 15.5554 0 16.6458C0 17.7361 0.614625 18.6945 1.60463 19.1483L19.1647 27.1755Z" fill="#74CD24"/>
</g>
<defs>
<clipPath id="clip0_280_2452">
<rect width="44" height="44" fill="white"/>
</clipPath>
</defs>
</svg>
