<svg width="24" height="24" viewBox="0 0 24 24" fill="none" xmlns="http://www.w3.org/2000/svg">
<g clip-path="url(#clip0_280_2548)">
<path fill-rule="evenodd" clip-rule="evenodd" d="M13.0128 10.2443L11.9103 0.186569L10.8744 9.63647L7.96619 3.09468L10.7733 10.2224L2.35897 4.84676L9.07387 11.6284L2.1277 9.83134L9.31527 12.0325L0 15.3181L9.4733 14.2212L3.68599 18.6563L9.86584 14.3354L6.60969 23.7154L11.654 15.553L11.4676 22.9243L11.9909 15.2688L17.2108 23.7154L14.0873 14.7174L19.6129 19.4214L13.9711 14.1776L23.8205 15.3181L15.0083 12.2099L21.9882 10.7853L14.3881 11.9905L21.4615 4.84676L13.58 9.88199L16.805 3.51922L13.0281 10.2346L13.0128 10.2443Z" fill="white"/>
<path fill-rule="evenodd" clip-rule="evenodd" d="M13.0128 10.2443L11.9103 0.186569L10.8744 9.63647L7.96619 3.09468L10.7733 10.2224L2.35897 4.84676L9.07387 11.6284L2.1277 9.83134L9.31527 12.0325L0 15.3181L9.4733 14.2212L3.68599 18.6563L9.86584 14.3354L6.60969 23.7154L11.654 15.553L11.4676 22.9243L11.9909 15.2688L17.2108 23.7154L14.0873 14.7174L19.6129 19.4214L13.9711 14.1776L23.8205 15.3181L15.0083 12.2099L21.9882 10.7853L14.3881 11.9905L21.4615 4.84676L13.58 9.88199L16.805 3.51922L13.0281 10.2346L13.0128 10.2443Z" fill="white" fill-opacity="0.2"/>
</g>
<defs>
<clipPath id="clip0_280_2548">
<rect width="24" height="24" fill="white"/>
</clipPath>
</defs>
</svg>
