<svg width="153" height="153" viewBox="0 0 153 153" fill="none" xmlns="http://www.w3.org/2000/svg">
<g id="Rectangle 40336" filter="url(#filter0_d_280_2513)">
<path d="M32.2593 36.2208C33.8164 31.1277 37.9427 27.2324 43.117 25.971L85.8401 15.5553C91.1704 14.2558 96.786 15.9514 100.506 19.9836L130.773 52.7872C134.41 56.7289 135.682 62.3047 134.114 67.4335L120.575 111.715C118.953 117.023 114.548 121.012 109.105 122.101L66.1787 130.694C61.1657 131.698 55.9856 130.095 52.4151 126.436L22.3118 95.5866C18.4607 91.6401 17.0686 85.9074 18.6808 80.6342L32.2593 36.2208Z" fill="url(#paint0_linear_280_2513)"/>
<path d="M32.6838 36.3506C34.1951 31.4073 38.2 27.6266 43.2221 26.4022L85.9453 15.9865C91.1188 14.7253 96.5692 16.371 100.18 20.2846L130.447 53.0882C133.977 56.914 135.211 62.3257 133.689 67.3037L120.151 111.586C118.576 116.737 114.3 120.608 109.018 121.666L66.0915 130.259C61.2261 131.233 56.1983 129.677 52.7328 126.126L22.6294 95.2766C18.8917 91.4461 17.5405 85.8821 19.1053 80.764L32.6838 36.3506Z" stroke="#0A111D" stroke-opacity="0.05" stroke-width="0.887746"/>
</g>
<defs>
<filter id="filter0_d_280_2513" x="0.266077" y="0.921522" width="152.262" height="151.372" filterUnits="userSpaceOnUse" color-interpolation-filters="sRGB">
<feFlood flood-opacity="0" result="BackgroundImageFix"/>
<feColorMatrix in="SourceAlpha" type="matrix" values="0 0 0 0 0 0 0 0 0 0 0 0 0 0 0 0 0 0 127 0" result="hardAlpha"/>
<feOffset dy="3.55098"/>
<feGaussianBlur stdDeviation="8.87746"/>
<feComposite in2="hardAlpha" operator="out"/>
<feColorMatrix type="matrix" values="0 0 0 0 0 0 0 0 0 0 0 0 0 0 0 0 0 0 0.15 0"/>
<feBlend mode="normal" in2="BackgroundImageFix" result="effect1_dropShadow_280_2513"/>
<feBlend mode="normal" in="SourceGraphic" in2="effect1_dropShadow_280_2513" result="shape"/>
</filter>
<linearGradient id="paint0_linear_280_2513" x1="72.9713" y1="24.5122" x2="105.17" y2="127.187" gradientUnits="userSpaceOnUse">
<stop stop-color="#7795E7"/>
<stop offset="0.475" stop-color="#E0E9FF"/>
<stop offset="1" stop-color="#9AB2F4"/>
</linearGradient>
</defs>
</svg>
