<svg width="24" height="24" viewBox="0 0 24 24" fill="none" xmlns="http://www.w3.org/2000/svg">
<g id="Frame" opacity="0.5" clip-path="url(#clip0_280_2539)">
<path id="Vector" d="M11.7292 0.270737L11.8543 4.80055C11.9609 8.66256 15.0666 11.7682 18.9286 11.8749L23.4584 11.9999L18.9286 12.125C15.0666 12.2316 11.9609 15.3373 11.8543 19.1993L11.7292 23.7291L11.6041 19.1993C11.4975 15.3373 8.39182 12.2316 4.52981 12.125L0 11.9999L4.52981 11.8749C8.39182 11.7682 11.4975 8.66256 11.6041 4.80055L11.7292 0.270737Z" fill="white"/>
<path id="Vector_2" d="M11.7292 0.270737L11.8543 4.80055C11.9609 8.66256 15.0666 11.7682 18.9286 11.8749L23.4584 11.9999L18.9286 12.125C15.0666 12.2316 11.9609 15.3373 11.8543 19.1993L11.7292 23.7291L11.6041 19.1993C11.4975 15.3373 8.39182 12.2316 4.52981 12.125L0 11.9999L4.52981 11.8749C8.39182 11.7682 11.4975 8.66256 11.6041 4.80055L11.7292 0.270737Z" fill="white"/>
</g>
<defs>
<clipPath id="clip0_280_2539">
<rect width="23.7273" height="24" fill="white"/>
</clipPath>
</defs>
</svg>
