<svg width="172" height="42" viewBox="0 0 172 42" fill="none" xmlns="http://www.w3.org/2000/svg">
<g id="Group 41">
<g id="MigrantsWay">
<path d="M88.228 16.8712V4.33367H91.1904L96.461 12.8592H94.898L100.023 4.33367H102.986L103.022 16.8712H99.7143L99.6779 9.29495H100.241L96.4065 15.6354H94.8072L90.8633 9.29495H91.5539V16.8712H88.228Z" fill="black"/>
<path d="M105.405 16.8712V7.16357H108.858V16.8712H105.405ZM107.131 6.08892C106.501 6.08892 105.992 5.91579 105.605 5.56951C105.217 5.22324 105.023 4.79338 105.023 4.27994C105.023 3.76649 105.217 3.33663 105.605 2.99036C105.992 2.64408 106.501 2.47095 107.131 2.47095C107.761 2.47095 108.27 2.63811 108.658 2.97245C109.046 3.29484 109.24 3.71276 109.24 4.2262C109.24 4.76353 109.046 5.2113 108.658 5.56951C108.282 5.91579 107.773 6.08892 107.131 6.08892Z" fill="black"/>
<path d="M115.918 20.5071C114.973 20.5071 114.07 20.3996 113.21 20.1847C112.362 19.9698 111.635 19.6534 111.029 19.2354L112.283 16.8533C112.695 17.1757 113.204 17.4264 113.81 17.6056C114.428 17.7966 115.028 17.8921 115.609 17.8921C116.542 17.8921 117.215 17.6891 117.627 17.2832C118.039 16.8891 118.245 16.31 118.245 15.5458V14.3995L118.426 11.6771L118.408 8.93674V7.16357H121.698V15.098C121.698 16.9369 121.195 18.2981 120.189 19.1817C119.184 20.0653 117.76 20.5071 115.918 20.5071ZM115.318 16.3697C114.446 16.3697 113.64 16.1787 112.901 15.7966C112.174 15.4025 111.587 14.8592 111.138 14.1667C110.702 13.4622 110.484 12.6323 110.484 11.6771C110.484 10.7218 110.702 9.89795 111.138 9.2054C111.587 8.50091 112.174 7.95762 112.901 7.57552C113.64 7.19342 114.446 7.00237 115.318 7.00237C116.154 7.00237 116.869 7.16954 117.463 7.50388C118.057 7.82627 118.505 8.33374 118.808 9.02629C119.123 9.71884 119.28 10.6024 119.28 11.6771C119.28 12.7517 119.123 13.6353 118.808 14.3279C118.505 15.0204 118.057 15.5339 117.463 15.8682C116.869 16.2025 116.154 16.3697 115.318 16.3697ZM116.136 13.6652C116.548 13.6652 116.912 13.5816 117.227 13.4144C117.554 13.2473 117.808 13.0144 117.99 12.7159C118.184 12.4174 118.281 12.0711 118.281 11.6771C118.281 11.2831 118.184 10.9368 117.99 10.6383C117.808 10.3397 117.554 10.1129 117.227 9.95765C116.912 9.79049 116.548 9.7069 116.136 9.7069C115.724 9.7069 115.355 9.79049 115.028 9.95765C114.701 10.1129 114.44 10.3397 114.246 10.6383C114.064 10.9368 113.974 11.2831 113.974 11.6771C113.974 12.0711 114.064 12.4174 114.246 12.7159C114.44 13.0144 114.701 13.2473 115.028 13.4144C115.355 13.5816 115.724 13.6652 116.136 13.6652Z" fill="black"/>
<path d="M123.916 16.8712V7.16357H127.206V9.99347L126.715 9.18749C127.006 8.45912 127.479 7.91582 128.133 7.55761C128.787 7.18745 129.581 7.00237 130.514 7.00237V10.0651C130.356 10.0412 130.217 10.0293 130.096 10.0293C129.987 10.0174 129.866 10.0114 129.732 10.0114C129.029 10.0114 128.46 10.2024 128.024 10.5845C127.588 10.9547 127.37 11.5637 127.37 12.4114V16.8712H123.916Z" fill="black"/>
<path d="M137.369 16.8712V15.0622L137.132 14.6145V11.2831C137.132 10.7457 136.963 10.3338 136.624 10.0472C136.296 9.74869 135.769 9.59944 135.042 9.59944C134.57 9.59944 134.091 9.67705 133.607 9.83228C133.122 9.97556 132.71 10.1786 132.371 10.4412L131.208 8.13075C131.765 7.77254 132.431 7.49791 133.207 7.30686C133.994 7.10387 134.776 7.00237 135.551 7.00237C137.151 7.00237 138.387 7.36656 139.259 8.09493C140.143 8.81136 140.586 9.93974 140.586 11.4801V16.8712H137.369ZM134.461 17.0324C133.673 17.0324 133.007 16.9011 132.462 16.6384C131.916 16.3757 131.498 16.0175 131.208 15.5637C130.929 15.11 130.79 14.6025 130.79 14.0413C130.79 13.4443 130.941 12.9308 131.244 12.501C131.559 12.0592 132.038 11.7248 132.68 11.498C133.322 11.2592 134.152 11.1398 135.17 11.1398H137.496V12.9129H135.642C135.085 12.9129 134.691 13.0025 134.461 13.1816C134.243 13.3607 134.134 13.5995 134.134 13.898C134.134 14.1965 134.249 14.4353 134.479 14.6145C134.709 14.7936 135.024 14.8831 135.424 14.8831C135.8 14.8831 136.139 14.7936 136.442 14.6145C136.757 14.4234 136.987 14.1368 137.132 13.7547L137.605 15.0085C137.423 15.6772 137.066 16.1846 136.533 16.5309C136.012 16.8652 135.321 17.0324 134.461 17.0324Z" fill="black"/>
<path d="M149.181 7.00237C149.944 7.00237 150.635 7.1576 151.253 7.46805C151.871 7.76657 152.355 8.23225 152.707 8.8651C153.07 9.49794 153.252 10.3159 153.252 11.3189V16.8712H149.799V11.8741C149.799 11.1816 149.653 10.6801 149.363 10.3696C149.084 10.0472 148.69 9.88601 148.181 9.88601C147.818 9.88601 147.485 9.96959 147.182 10.1368C146.879 10.292 146.643 10.5368 146.473 10.8711C146.303 11.2054 146.218 11.6413 146.218 12.1786V16.8712H142.765V7.16357H146.055V9.92183L145.419 9.11585C145.794 8.41136 146.309 7.88597 146.964 7.5397C147.618 7.18148 148.357 7.00237 149.181 7.00237Z" fill="black"/>
<path d="M159.818 17.0324C158.558 17.0324 157.577 16.7279 156.874 16.119C156.171 15.4981 155.82 14.5667 155.82 13.3249V4.99637H159.273V13.2891C159.273 13.6353 159.37 13.91 159.564 14.113C159.758 14.304 160.006 14.3995 160.309 14.3995C160.721 14.3995 161.072 14.298 161.363 14.095L162.217 16.4772C161.926 16.6682 161.569 16.8055 161.145 16.8891C160.721 16.9846 160.279 17.0324 159.818 17.0324ZM154.384 10.0651V7.52179H161.527V10.0651H154.384Z" fill="black"/>
<path d="M167.129 17.0324C166.293 17.0324 165.475 16.9369 164.676 16.7458C163.888 16.5548 163.252 16.316 162.767 16.0294L163.803 13.701C164.264 13.9756 164.803 14.1965 165.421 14.3637C166.039 14.5189 166.645 14.5965 167.238 14.5965C167.82 14.5965 168.22 14.5368 168.438 14.4174C168.668 14.298 168.783 14.1368 168.783 13.9338C168.783 13.7428 168.674 13.6055 168.456 13.5219C168.25 13.4264 167.971 13.3547 167.62 13.307C167.281 13.2592 166.905 13.2055 166.493 13.1458C166.081 13.0861 165.663 13.0085 165.239 12.9129C164.827 12.8055 164.445 12.6502 164.094 12.4473C163.755 12.2323 163.482 11.9457 163.276 11.5875C163.07 11.2293 162.967 10.7756 162.967 10.2263C162.967 9.60541 163.149 9.05614 163.512 8.57852C163.888 8.08896 164.433 7.70686 165.148 7.43223C165.863 7.14566 166.735 7.00237 167.765 7.00237C168.456 7.00237 169.153 7.07402 169.855 7.2173C170.57 7.34865 171.17 7.55164 171.655 7.82627L170.619 10.1368C170.134 9.86213 169.649 9.67705 169.165 9.58153C168.68 9.47406 168.22 9.42033 167.783 9.42033C167.202 9.42033 166.79 9.486 166.548 9.61735C166.317 9.74869 166.202 9.90989 166.202 10.1009C166.202 10.292 166.305 10.4412 166.511 10.5487C166.717 10.6442 166.99 10.7218 167.329 10.7815C167.68 10.8293 168.062 10.883 168.474 10.9427C168.886 10.9905 169.298 11.0681 169.71 11.1756C170.134 11.2831 170.516 11.4442 170.855 11.6592C171.206 11.8622 171.485 12.1428 171.691 12.501C171.897 12.8473 172 13.295 172 13.8443C172 14.4413 171.812 14.9786 171.437 15.4563C171.073 15.9339 170.528 16.316 169.801 16.6026C169.086 16.8891 168.195 17.0324 167.129 17.0324Z" fill="black"/>
<path d="M91.3722 38.3641L87.2466 25.8266H90.9542L94.4255 36.6805H92.5535L96.2066 25.8266H99.5143L102.967 36.6805H101.168L104.749 25.8266H108.184L104.058 38.3641H100.205L97.2607 29.1401H98.2967L95.2252 38.3641H91.3722Z" fill="black"/>
<path d="M114.597 38.3641V36.5552L114.361 36.1074V32.776C114.361 32.2387 114.192 31.8267 113.852 31.5401C113.525 31.2416 112.998 31.0924 112.271 31.0924C111.799 31.0924 111.32 31.17 110.835 31.3252C110.351 31.4685 109.939 31.6715 109.599 31.9342L108.436 29.6237C108.994 29.2655 109.66 28.9908 110.435 28.7998C111.223 28.5968 112.005 28.4953 112.78 28.4953C114.379 28.4953 115.615 28.8595 116.488 29.5879C117.372 30.3043 117.814 31.4327 117.814 32.973V38.3641H114.597ZM111.69 38.5253C110.902 38.5253 110.236 38.394 109.69 38.1313C109.145 37.8686 108.727 37.5104 108.436 37.0567C108.158 36.6029 108.018 36.0955 108.018 35.5342C108.018 34.9372 108.17 34.4238 108.473 33.9939C108.788 33.5521 109.266 33.2178 109.908 32.9909C110.551 32.7521 111.381 32.6327 112.398 32.6327H114.725V34.4059H112.871C112.314 34.4059 111.92 34.4954 111.69 34.6745C111.471 34.8536 111.362 35.0924 111.362 35.391C111.362 35.6895 111.477 35.9283 111.708 36.1074C111.938 36.2865 112.253 36.3761 112.653 36.3761C113.028 36.3761 113.368 36.2865 113.671 36.1074C113.986 35.9163 114.216 35.6298 114.361 35.2477L114.834 36.5014C114.652 37.1701 114.295 37.6776 113.761 38.0238C113.24 38.3582 112.55 38.5253 111.69 38.5253Z" fill="black"/>
<path d="M121.507 42C120.986 42 120.459 41.9165 119.926 41.7493C119.405 41.5941 118.98 41.3851 118.653 41.1224L119.853 38.7403C120.059 38.9194 120.295 39.0567 120.562 39.1522C120.84 39.2597 121.113 39.3134 121.379 39.3134C121.755 39.3134 122.052 39.2298 122.27 39.0627C122.488 38.8955 122.676 38.6328 122.833 38.2746L123.288 37.1462L123.56 36.8059L126.905 28.6565H130.194L125.941 38.7582C125.602 39.594 125.208 40.2448 124.76 40.7105C124.324 41.1881 123.833 41.5224 123.288 41.7135C122.755 41.9045 122.161 42 121.507 42ZM122.852 38.7761L118.508 28.6565H122.052L125.251 36.5014L122.852 38.7761Z" fill="black"/>
</g>
<g id="Vector">
<path d="M34.6747 8.56043C14.2409 9.79304 -0.000114441 38.7056 -0.000114441 38.7056H6.9652C6.9652 38.7056 19.4657 12.8106 34.8231 8.584C34.7759 8.57727 34.7253 8.56717 34.6747 8.56043Z" fill="#8AC947"/>
<path d="M34.6747 8.56043C34.7253 8.56717 34.7759 8.57727 34.8231 8.584C34.7523 8.60421 34.6815 8.62779 34.6106 8.64799C14.7569 10.7529 2.05069 38.7056 2.05069 38.7056H-0.000114441C-0.000114441 38.7056 14.2375 9.79304 34.6747 8.56043Z" fill="#8AC947"/>
<path d="M46.8244 4.14862C24.8592 5.56309 9.55232 38.7056 9.55232 38.7056H17.4891C17.4891 38.7056 30.4787 9.02182 46.9863 4.17556C46.9357 4.16882 46.8817 4.15872 46.8278 4.14862H46.8244Z" fill="#8AC947"/>
<path d="M46.8244 4.14862C46.8784 4.15535 46.9323 4.16546 46.9829 4.17556C46.9492 4.18566 46.9188 4.19577 46.8851 4.20587C25.2909 6.22318 11.4379 38.7056 11.4379 38.7056H9.55232C9.55232 38.7056 24.8592 5.56309 46.8244 4.14862Z" fill="#8AC947"/>
<path d="M46.9863 4.34732C57.1796 4.90637 63.359 9.63139 67.0896 15.4105C67.4337 13.7435 67.6327 12.2145 67.6934 10.827C62.8227 6.32421 56.1745 3.38413 47.1448 4.32374C47.0909 4.33048 47.0335 4.34058 46.9863 4.34732Z" fill="#8AC947"/>
<path d="M71.9266 28.3597C72.9789 34.1523 72.6619 38.7056 72.6619 38.7056H80.5986C80.5986 38.7056 79.4248 28.4338 74.1055 19.0915C73.6299 22.2977 72.817 25.4903 71.9266 28.3597Z" fill="#8AC947"/>
<path d="M74.2371 19.3306C79.4417 28.6089 80.5986 38.7056 80.5986 38.7056L79.1516 38.7056C79.0437 37.025 78.2881 27.9825 74.2371 19.334V19.3306Z" fill="#8AC947"/>
<path d="M72.6619 38.7056C72.6619 38.7056 72.6652 38.6449 72.672 38.5304L75.1883 38.7056L72.6619 38.7056Z" fill="#8AC947"/>
<path d="M40.247 8.98814C42.5137 9.3687 44.5038 10.0894 46.2577 11.0661C56.3903 16.6937 58.539 30.7542 58.991 36.3481C59.9219 34.5766 61.4195 31.5995 62.9037 28.1138C60.0973 21.2132 55.2233 12.9386 47.3472 9.82672C45.3301 9.03192 43.1141 8.5739 40.6888 8.56043C40.5371 8.70188 40.392 8.84669 40.2436 8.98814H40.247Z" fill="#8AC947"/>
<path d="M47.9645 10.406C46.0081 9.44616 43.8291 8.82649 41.4107 8.65136C41.2488 8.78944 41.0936 8.92752 40.9351 9.0656C41.3668 9.17 41.7817 9.29124 42.1898 9.42258C41.5625 9.25083 40.9182 9.10601 40.2436 8.99151C40.392 8.85006 40.5371 8.70525 40.6888 8.5638C43.1141 8.57727 45.3301 9.03192 47.3472 9.83009C55.2233 12.9419 60.0973 21.2166 62.9037 28.1172C62.6305 28.7571 62.3606 29.3768 62.0908 29.9796C59.7431 22.7321 55.4762 14.0903 47.9645 10.4093V10.406Z" fill="#8AC947"/>
<path d="M67.7339 1.37355C80.8955 9.08917 66.6174 38.7056 66.6174 38.7056H59.1124C59.1124 38.7056 79.2258 3.23931 61.8985 0.262182C63.693 -0.00050645 65.9495 0.329537 67.7372 1.37355H67.7339Z" fill="#8AC947"/>
<path d="M66.8198 2.84865C74.6992 10.7192 63.9325 33.3811 61.234 38.7056L59.1124 38.7056C59.1124 38.7056 74.4159 11.7161 66.8198 2.84865Z" fill="#8AC947"/>
<path d="M63.7672 0.763983C63.1971 0.548444 62.5799 0.376687 61.8951 0.258814C63.4771 0.0298037 65.4132 0.258814 67.0728 1.03004C65.9529 0.733673 64.7993 0.659581 63.7638 0.763983H63.7672Z" fill="#8AC947"/>
<path d="M20.8588 38.7056H30.7654C30.7654 38.7056 36.4253 22.5671 46.2544 11.0694C46.6153 10.6485 46.9796 10.2309 47.3472 9.82672C51.5332 5.22968 56.4207 1.55541 61.8985 0.262182C61.8378 0.255446 61.7838 0.238607 61.7265 0.228504C53.8943 -1.00074 46.7468 2.86549 40.6922 8.56043C40.5404 8.70188 40.3954 8.84669 40.247 8.98814C28.3941 20.4184 20.8588 38.7022 20.8588 38.7022V38.7056Z" fill="#8AC947"/>
<path d="M40.247 8.98814C40.3954 8.84669 40.5404 8.70188 40.6922 8.56043C46.1397 3.43801 52.4709 -0.202574 59.3856 0.0095969C53.2298 0.215032 47.5867 3.73101 42.6891 8.56043C42.544 8.70188 42.4057 8.84669 42.2641 8.98814C30.9644 20.4184 23.7832 38.7022 23.7832 38.7022H20.8588C20.8588 38.7022 28.3907 20.4184 40.247 8.98814Z" fill="#8AC947"/>
</g>
</g>
</svg>
