<svg width="44" height="44" viewBox="0 0 44 44" fill="none" xmlns="http://www.w3.org/2000/svg">
<g id="luggage 1">
<g id="Group">
<path id="Vector" d="M37.6472 11.9412H32.0589V8.58824C32.0588 5.50377 29.5551 3 26.4706 3H17.5295C14.445 3 11.9412 5.50377 11.9412 8.58824V11.9411H6.35291C4.49744 11.9411 3 13.4386 3 15.2941V19.7646C3 21.6201 4.49744 23.1175 6.35291 23.1175H37.6471C39.5026 23.1175 41 21.6201 41 19.7646V15.2941C41.0001 13.4387 39.5026 11.9412 37.6472 11.9412ZM29.8236 11.9412H14.1765V8.58824C14.1765 6.73276 15.6739 5.23532 17.5294 5.23532H26.4706C28.3261 5.23532 29.8235 6.73276 29.8235 8.58824L29.8236 11.9412Z" fill="#74CD24"/>
<path id="Vector_2" d="M32.059 25.353V28.7059C32.059 29.3237 31.5591 29.8236 30.9413 29.8236C30.3235 29.8236 29.8236 29.3237 29.8236 28.7059V25.353H14.1766V28.7059C14.1766 29.3237 13.6767 29.8236 13.0589 29.8236C12.4411 29.8236 11.9413 29.3237 11.9413 28.7059V25.353C11.9413 25.353 7.81038 25.3274 6.02519 25.2786C5.59041 25.2667 5.23535 25.6174 5.23535 26.0524V37.6471C5.23535 39.4989 6.7365 41 8.58826 41H35.4119C37.2636 41 38.7648 39.4989 38.7648 37.6471V26.0524C38.7648 25.6174 38.4097 25.2667 37.9749 25.2786C36.1898 25.3275 32.059 25.353 32.059 25.353Z" fill="#74CD24"/>
</g>
</g>
</svg>
