<svg width="93" height="93" viewBox="0 0 93 93" fill="none" xmlns="http://www.w3.org/2000/svg">
<g clip-path="url(#clip0_280_2522)">
<path d="M74.265 24.8682C73.6428 24.4044 72.9075 24.1163 72.1359 24.0338C71.3643 23.9513 70.5847 24.0775 69.8785 24.3993L32.2937 41.3823C31.0265 41.9548 29.9792 42.923 29.309 44.1413C28.6388 45.3597 28.3818 46.7626 28.5767 48.1394L32.6626 77.0071C32.8776 78.5268 32.594 80.0752 31.8542 81.42C31.1145 82.7648 29.9585 83.8333 28.5599 84.4653L75.8252 63.1081C77.2241 62.476 78.3803 61.4072 79.1202 60.0621C79.8601 58.717 80.1437 57.1683 79.9286 55.6483L76.0067 27.9366C75.9349 27.335 75.7439 26.7538 75.4449 26.227C75.1458 25.7001 74.7447 25.2382 74.265 24.8682Z" fill="#3E66D4"/>
<path d="M29.7849 77.4158L25.7042 48.5472C25.4261 46.5497 25.8007 44.5158 26.7723 42.7484C27.7439 40.981 29.2604 39.5748 31.096 38.7393L64.7192 23.5463L64.1218 22.2242C63.488 20.8215 62.3229 19.728 60.8829 19.1844C59.4429 18.6407 57.8459 18.6914 56.4433 19.3252L36.2874 28.4327C35.8934 28.6108 35.4647 28.6988 35.0324 28.6903C34.6001 28.6818 34.1751 28.5771 33.7884 28.3838L29.7453 26.3623C28.7822 25.8808 27.7238 25.62 26.6473 25.5989C25.5707 25.5778 24.503 25.7969 23.5217 26.2403L8.50165 33.0272C7.09898 33.661 6.00554 34.8261 5.46188 36.2661C4.91821 37.7061 4.96885 39.3031 5.60266 40.7057L23.5259 80.3714C23.8428 81.0728 24.4253 81.6195 25.1453 81.8913C25.8653 82.1631 26.6638 82.1378 27.3652 81.8209C28.1895 81.4457 28.8705 80.8141 29.3066 80.0202C29.7427 79.2264 29.9105 78.3128 29.7849 77.4158Z" fill="#3E66D4"/>
</g>
<defs>
<clipPath id="clip0_280_2522">
<rect width="69.6433" height="69.6433" fill="white" transform="translate(0.225586 28.8062) rotate(-24.3162)"/>
</clipPath>
</defs>
</svg>
