<svg width="77" height="77" viewBox="0 0 77 77" fill="none" xmlns="http://www.w3.org/2000/svg">
<g clip-path="url(#clip0_280_2514)">
<path d="M61.1082 32.6787C63.2641 31.5324 64.9662 29.7658 66.0316 27.5675C66.5803 26.4341 66.5562 25.1477 65.9644 24.036C65.3734 22.9245 64.3182 22.1856 63.0755 22.0078C60.6581 21.6621 58.2412 22.0841 56.0852 23.2305L49.4177 26.7757L46.5641 25.1756C47.3278 24.5434 47.5705 23.4386 47.0879 22.5294C46.5345 21.4915 45.2415 21.0952 44.202 21.6471L42.1858 22.7191L38.8044 20.8226L39.1342 20.6472C40.1728 20.095 40.5678 18.7996 40.0162 17.7622C39.4839 16.7568 38.1397 16.3448 37.1313 16.8802L34.3825 18.3418L27.3838 14.4165C26.8338 14.1073 26.1703 14.1006 25.6103 14.3968L23.6396 15.4446C23.1221 15.7198 22.772 16.2102 22.6809 16.7899C22.5897 17.3695 22.7715 17.9435 23.1799 18.3656L37.815 33.4769L25.9192 40.5048L16.719 38.2185L14.8883 39.1911C14.4961 39.4004 14.2385 39.7911 14.2 40.2347C14.1624 40.6785 14.349 41.1059 14.7 41.3784L22.2691 47.2715L22.9228 56.8431C22.9532 57.2868 23.2029 57.6814 23.5922 57.8975C23.6745 57.9426 23.7605 57.9789 23.8474 58.0055C24.1751 58.1057 24.5312 58.0735 24.8429 57.9085L26.6714 56.9363L29.9209 48.0295L42.3994 42.0975L46.7389 62.6722C46.8596 63.2465 47.2338 63.7183 47.7653 63.9668C48.2974 64.2136 48.8992 64.1994 49.4167 63.9242L51.3883 62.8767C51.9464 62.5799 52.3107 62.0267 52.3634 61.3963L53.0234 53.4073L55.7754 51.9447C56.2786 51.6772 56.6476 51.2296 56.8144 50.6841C56.9812 50.1385 56.9255 49.5611 56.658 49.0579C56.1046 48.02 54.8116 47.6237 53.7721 48.1756L53.4411 48.3516L53.7606 44.488L55.7779 43.4154C56.2811 43.1479 56.6501 42.7002 56.8169 42.1547C56.9837 41.6092 56.928 41.0317 56.6611 40.5298C56.1941 39.6514 55.1099 39.2268 54.1733 39.488L54.443 36.2226L61.1106 32.6775L61.1082 32.6787Z" fill="#3E66D4"/>
</g>
<defs>
<clipPath id="clip0_280_2514">
<rect width="61.2545" height="61.2545" fill="white" transform="translate(18.3743 0.285645) rotate(17)"/>
</clipPath>
</defs>
</svg>
