<svg width="68" height="78" viewBox="0 0 68 78" fill="none" xmlns="http://www.w3.org/2000/svg">
<path d="M0 23.731C0 20.9183 1.47707 18.3123 3.89023 16.8674L29.6528 1.4414C32.166 -0.0634509 35.3008 -0.0743712 37.8244 1.41293L64.0618 16.8758C66.5021 18.314 68 20.9354 68 23.7679V55.6195C68 58.5515 66.396 61.2487 63.8198 62.6487L37.5805 76.9077C35.1817 78.2112 32.2839 78.2015 29.8939 76.882L4.13328 62.6591C1.58325 61.2512 0 58.5685 0 55.6556V23.731Z" fill="url(#paint0_linear_280_2497)"/>
<path d="M0.5 23.731C0.5 21.0941 1.88475 18.651 4.14709 17.2963L29.9097 1.87038C32.2658 0.459581 35.2046 0.449343 37.5706 1.84369L63.808 17.3066C66.0958 18.6548 67.5 21.1124 67.5 23.7679V55.6195C67.5 58.3683 65.9963 60.8969 63.5811 62.2093L37.3417 76.4683C35.0929 77.6904 32.3762 77.6813 30.1356 76.4443L4.37495 62.2214C1.9843 60.9015 0.5 58.3865 0.5 55.6556V23.731Z" stroke="#0A111D" stroke-opacity="0.05"/>
<defs>
<linearGradient id="paint0_linear_280_2497" x1="22.6667" y1="9.85714" x2="61.9268" y2="66.6937" gradientUnits="userSpaceOnUse">
<stop stop-color="#B6EC88"/>
<stop offset="0.475" stop-color="#ECFFDA"/>
<stop offset="1" stop-color="#C7EEA5"/>
</linearGradient>
</defs>
</svg>
