<svg width="1920" height="682" viewBox="0 0 1920 682" fill="none" xmlns="http://www.w3.org/2000/svg">
<path opacity="0.1" d="M2065.81 391.737C1972.13 391.324 1821.36 391.024 1730.52 388.997C1665.09 387.538 1599.65 385.871 1534.28 382.663C1438.9 377.982 1293.13 399.153 1198.47 370C1117.77 345.143 1064.49 328.878 1019 261C1006.89 242.935 998.264 172.453 999 150C1001.51 73.3765 1069.15 29.8916 1136.5 11.9999C1239.82 -15.4464 1371.19 14.4166 1461.33 64.7368C1493.98 82.9641 1520.17 102.804 1531.88 138.355C1542.2 169.677 1563.32 230.273 1554.5 261C1545.68 291.727 1509.55 349.392 1484.44 370C1429.15 415.381 1375.85 421.073 1312.86 450.802C1176.78 515.021 1038.62 573.187 899.137 629.368C859.448 645.354 793.109 634.142 751.361 644.434C712.437 654.03 587.831 618.406 540.763 644.434C465.241 686.196 344.825 686.461 266.576 671.656C210.322 661.012 110.881 640.609 50.9821 614.816C6.85212 595.813 62.7653 597.035 72.2161 599.579C91.3082 604.718 71.8027 628.087 65.3664 637.586C54.7792 653.211 30.4212 650.44 13.9939 650.597C-6.49566 650.794 -14.4241 661.98 -30.1865 675.251" stroke="#0A111D" stroke-width="1.5" stroke-linecap="round" stroke-linejoin="round" stroke-dasharray="16 16"/>
</svg>
